<svg xmlns="http://www.w3.org/2000/svg" xmlns:xlink="http://www.w3.org/1999/xlink" width="512" height="512" x="0" y="0" version="1.1" viewBox="0 0 32 32" style="enable-background:new 0 0 512 512" xml:space="preserve"><g><linearGradient id="a" x1="16" x2="16" y1=".918" y2="29.85" gradientUnits="userSpaceOnUse"><stop offset="0" stop-color="#73bf69" stop-opacity="1"/><stop offset="1" stop-color="#73bf69" stop-opacity="1"/></linearGradient><path fill="url(#a)" d="m27.488 8.337-10.5-5.925a1.987 1.987 0 0 0-1.976 0l-10.5 5.925a2.025 2.025 0 0 0-1.012 1.75v11.825a2.025 2.025 0 0 0 1.012 1.75l10.5 5.926a1.988 1.988 0 0 0 1.976 0l10.5-5.925a2.025 2.025 0 0 0 1.012-1.75V10.088a2.024 2.024 0 0 0-1.012-1.75z" data-original="url(#a)" opacity="1"/></g></svg>